<svg width="25" height="24" viewBox="0 0 25 24" fill="none" xmlns="http://www.w3.org/2000/svg">
<path d="M20.3333 20V13M12.3333 20V10M4.33334 20L4.33334 16M13.74 5.0275L18.9085 6.96567M11.1321 5.40092L5.53357 9.59983M21.394 6.43934C21.9798 7.02513 21.9798 7.97487 21.394 8.56066C20.8082 9.14645 19.8585 9.14645 19.2727 8.56066C18.6869 7.97487 18.6869 7.02513 19.2727 6.43934C19.8585 5.85355 20.8082 5.85355 21.394 6.43934ZM5.394 9.43934C5.97979 10.0251 5.97979 10.9749 5.394 11.5607C4.80822 12.1464 3.85847 12.1464 3.27268 11.5607C2.6869 10.9749 2.6869 10.0251 3.27268 9.43934C3.85847 8.85355 4.80822 8.85355 5.394 9.43934ZM13.394 3.43934C13.9798 4.02513 13.9798 4.97487 13.394 5.56066C12.8082 6.14645 11.8585 6.14645 11.2727 5.56066C10.6869 4.97487 10.6869 4.02513 11.2727 3.43934C11.8585 2.85355 12.8082 2.85355 13.394 3.43934Z" stroke="white" stroke-width="1.5" stroke-linecap="round" stroke-linejoin="round"/>
</svg>
