<svg width="25" height="24" viewBox="0 0 25 24" fill="none" xmlns="http://www.w3.org/2000/svg">
<path d="M21.877 15.8901C21.2409 17.3946 20.2458 18.7203 18.9789 19.7514C17.712 20.7825 16.2118 21.4875 14.6095 21.8048C13.0071 22.1222 11.3515 22.0422 9.78718 21.5719C8.2229 21.1015 6.79765 20.2551 5.63605 19.1067C4.47444 17.9583 3.61184 16.5428 3.12366 14.984C2.63549 13.4252 2.53659 11.7706 2.83563 10.1647C3.13466 8.55885 3.82253 7.0507 4.83908 5.7721C5.85563 4.4935 7.16991 3.48339 8.66703 2.83007M21.9058 8.17323C22.3061 9.1397 22.5517 10.1614 22.635 11.2009C22.6556 11.4577 22.6659 11.5861 22.6149 11.7018C22.5723 11.7984 22.488 11.8898 22.395 11.94C22.2838 12.0001 22.1449 12.0001 21.867 12.0001H13.467C13.187 12.0001 13.047 12.0001 12.94 11.9456C12.846 11.8976 12.7695 11.8211 12.7215 11.7271C12.667 11.6201 12.667 11.4801 12.667 11.2001V2.80007C12.667 2.5222 12.667 2.38327 12.7271 2.27205C12.7773 2.17915 12.8687 2.09476 12.9653 2.05216C13.081 2.00117 13.2094 2.01146 13.4662 2.03205C14.5057 2.11539 15.5274 2.36095 16.4939 2.76127C17.7071 3.26382 18.8095 4.00042 19.7381 4.929C20.6667 5.85759 21.4033 6.95998 21.9058 8.17323Z" stroke="white" stroke-width="1.5" stroke-linecap="round" stroke-linejoin="round"/>
</svg>
