<svg width="25" height="24" viewBox="0 0 25 24" fill="none" xmlns="http://www.w3.org/2000/svg">
<path d="M2.66663 14.5001L12.3089 19.3212C12.44 19.3868 12.5056 19.4196 12.5744 19.4325C12.6354 19.4439 12.6979 19.4439 12.7588 19.4325C12.8276 19.4196 12.8932 19.3868 13.0244 19.3212L22.6666 14.5001M2.66663 9.50006L12.3089 4.67895C12.44 4.61336 12.5056 4.58056 12.5744 4.56766C12.6354 4.55622 12.6979 4.55622 12.7588 4.56766C12.8276 4.58056 12.8932 4.61336 13.0244 4.67895L22.6666 9.50006L13.0244 14.3212C12.8932 14.3868 12.8276 14.4196 12.7588 14.4325C12.6979 14.4439 12.6354 14.4439 12.5744 14.4325C12.5056 14.4196 12.44 14.3868 12.3089 14.3212L2.66663 9.50006Z" stroke="white" stroke-width="1.5" stroke-linecap="round" stroke-linejoin="round"/>
</svg>
