<svg width="33" height="32" viewBox="0 0 33 32" fill="none" xmlns="http://www.w3.org/2000/svg">
<path d="M12.6667 15.3333L15.3333 18L21.3333 12M27.3333 16C27.3333 22.5446 20.1947 27.3045 17.5973 28.8198C17.3021 28.992 17.1545 29.0781 16.9462 29.1228C16.7846 29.1575 16.5487 29.1575 16.3871 29.1228C16.1788 29.0781 16.0312 28.992 15.736 28.8198C13.1386 27.3045 6 22.5446 6 16V9.62346C6 8.55744 6 8.02444 6.17435 7.56626C6.32837 7.16151 6.57864 6.80036 6.90354 6.51403C7.27133 6.18991 7.7704 6.00276 8.76854 5.62845L15.9176 2.94756C16.1948 2.84361 16.3334 2.79163 16.476 2.77103C16.6024 2.75276 16.7309 2.75276 16.8574 2.77103C16.9999 2.79163 17.1385 2.84361 17.4157 2.94756L24.5648 5.62845C25.5629 6.00276 26.062 6.18991 26.4298 6.51403C26.7547 6.80036 27.005 7.16151 27.159 7.56626C27.3333 8.02444 27.3333 8.55744 27.3333 9.62346V16Z" stroke="#3534FF" stroke-width="1.5" stroke-linecap="round" stroke-linejoin="round"/>
</svg>
