<svg width="32" height="32" viewBox="0 0 32 32" fill="none" xmlns="http://www.w3.org/2000/svg">
<path d="M28.2667 29.3334C28.6401 29.3334 28.8268 29.3334 28.9694 29.2607C29.0949 29.1968 29.1968 29.0948 29.2608 28.9693C29.3334 28.8267 29.3334 28.6401 29.3334 28.2667V14.4C29.3334 14.0267 29.3334 13.84 29.2608 13.6974C29.1968 13.5719 29.0949 13.4699 28.9694 13.406C28.8268 13.3334 28.6401 13.3334 28.2667 13.3334L25.0667 13.3334C24.6934 13.3334 24.5067 13.3334 24.3641 13.406C24.2386 13.4699 24.1367 13.5719 24.0727 13.6974C24.0001 13.84 24.0001 14.0267 24.0001 14.4V17.6C24.0001 17.9734 24.0001 18.1601 23.9274 18.3027C23.8635 18.4281 23.7615 18.5301 23.6361 18.594C23.4935 18.6667 23.3068 18.6667 22.9334 18.6667H19.7334C19.36 18.6667 19.1734 18.6667 19.0308 18.7393C18.9053 18.8033 18.8033 18.9053 18.7394 19.0307C18.6667 19.1733 18.6667 19.36 18.6667 19.7334V22.9334C18.6667 23.3067 18.6667 23.4934 18.5941 23.636C18.5302 23.7615 18.4282 23.8634 18.3027 23.9274C18.1601 24 17.9734 24 17.6001 24H14.4001C14.0267 24 13.84 24 13.6974 24.0727C13.572 24.1366 13.47 24.2386 13.4061 24.364C13.3334 24.5066 13.3334 24.6933 13.3334 25.0667V28.2667C13.3334 28.6401 13.3334 28.8267 13.4061 28.9693C13.47 29.0948 13.572 29.1968 13.6974 29.2607C13.84 29.3334 14.0267 29.3334 14.4001 29.3334L28.2667 29.3334Z" stroke="#3534FF" stroke-width="1.5" stroke-linecap="round" stroke-linejoin="round"/>
<path d="M13.3334 9.06669C13.3334 8.69332 13.3334 8.50663 13.4061 8.36403C13.47 8.23859 13.572 8.1366 13.6974 8.07268C13.84 8.00002 14.0267 8.00002 14.4001 8.00002H17.6001C17.9734 8.00002 18.1601 8.00002 18.3027 8.07268C18.4282 8.1366 18.5302 8.23859 18.5941 8.36403C18.6667 8.50663 18.6667 8.69332 18.6667 9.06669V12.2667C18.6667 12.6401 18.6667 12.8267 18.5941 12.9693C18.5302 13.0948 18.4282 13.1968 18.3027 13.2607C18.1601 13.3334 17.9734 13.3334 17.6001 13.3334H14.4001C14.0267 13.3334 13.84 13.3334 13.6974 13.2607C13.572 13.1968 13.47 13.0948 13.4061 12.9693C13.3334 12.8267 13.3334 12.6401 13.3334 12.2667V9.06669Z" stroke="#3534FF" stroke-width="1.5" stroke-linecap="round" stroke-linejoin="round"/>
<path d="M4.00008 17.0667C4.00008 16.6933 4.00008 16.5066 4.07274 16.364C4.13666 16.2386 4.23865 16.1366 4.36409 16.0727C4.5067 16 4.69338 16 5.06675 16H8.26675C8.64012 16 8.8268 16 8.96941 16.0727C9.09485 16.1366 9.19684 16.2386 9.26075 16.364C9.33341 16.5066 9.33341 16.6933 9.33341 17.0667V20.2667C9.33341 20.6401 9.33341 20.8267 9.26075 20.9693C9.19684 21.0948 9.09485 21.1968 8.96941 21.2607C8.8268 21.3334 8.64012 21.3334 8.26675 21.3334H5.06675C4.69338 21.3334 4.5067 21.3334 4.36409 21.2607C4.23865 21.1968 4.13666 21.0948 4.07274 20.9693C4.00008 20.8267 4.00008 20.6401 4.00008 20.2667V17.0667Z" stroke="#3534FF" stroke-width="1.5" stroke-linecap="round" stroke-linejoin="round"/>
<path d="M2.66675 3.73335C2.66675 3.35999 2.66675 3.1733 2.73941 3.03069C2.80333 2.90525 2.90531 2.80326 3.03075 2.73935C3.17336 2.66669 3.36005 2.66669 3.73341 2.66669H6.93341C7.30678 2.66669 7.49347 2.66669 7.63608 2.73935C7.76152 2.80326 7.8635 2.90525 7.92742 3.03069C8.00008 3.1733 8.00008 3.35999 8.00008 3.73335V6.93335C8.00008 7.30672 8.00008 7.49341 7.92742 7.63601C7.8635 7.76146 7.76152 7.86344 7.63608 7.92736C7.49347 8.00002 7.30678 8.00002 6.93341 8.00002H3.73341C3.36005 8.00002 3.17336 8.00002 3.03075 7.92736C2.90531 7.86344 2.80333 7.76146 2.73941 7.63601C2.66675 7.49341 2.66675 7.30672 2.66675 6.93335V3.73335Z" stroke="#3534FF" stroke-width="1.5" stroke-linecap="round" stroke-linejoin="round"/>
</svg>
