<svg width="33" height="32" viewBox="0 0 33 32" fill="none" xmlns="http://www.w3.org/2000/svg">
<path d="M17.6667 14.6667H24.0667C25.5601 14.6667 26.3069 14.6667 26.8773 14.9573C27.3791 15.213 27.787 15.6209 28.0427 16.1227C28.3333 16.6931 28.3333 17.4399 28.3333 18.9333V28M17.6667 28V8.26667C17.6667 6.77319 17.6667 6.02646 17.376 5.45603C17.1204 4.95426 16.7124 4.54631 16.2106 4.29065C15.6402 4 14.8935 4 13.4 4H8.6C7.10653 4 6.35979 4 5.78936 4.29065C5.28759 4.54631 4.87964 4.95426 4.62398 5.45603C4.33333 6.02646 4.33333 6.77319 4.33333 8.26667V28M29.6667 28H3M9 9.33333H13M9 14.6667H13M9 20H13" stroke="#3534FF" stroke-width="1.5" stroke-linecap="round" stroke-linejoin="round"/>
</svg>
