<svg width="33" height="32" viewBox="0 0 33 32" fill="none" xmlns="http://www.w3.org/2000/svg">
<path d="M16.6663 12L6.08483 18.878C5.16769 19.4741 4.70913 19.7722 4.55031 20.1502C4.41151 20.4805 4.41151 20.8528 4.55031 21.1832M16.6663 12L27.2479 18.878C28.165 19.4741 28.6236 19.7722 28.7824 20.1502C28.9212 20.4805 28.9212 20.8528 28.7824 21.1832M16.6663 12V3.33334M16.6663 20L6.08482 13.122C5.16769 12.5259 4.70913 12.2278 4.55031 11.8498C4.41151 11.5195 4.41151 11.1472 4.55031 10.8169M16.6663 20L27.2479 13.122C28.165 12.5259 28.6236 12.2278 28.7824 11.8498C28.9212 11.5195 28.9212 11.1472 28.7824 10.8169M16.6663 20V28.6667M29.029 21.2976L17.829 28.5776C17.4082 28.8512 17.1977 28.9879 16.971 29.0411C16.7706 29.0882 16.5621 29.0882 16.3617 29.0411C16.1349 28.9879 15.9245 28.8512 15.5037 28.5776L4.3037 21.2976C3.94903 21.0671 3.77169 20.9518 3.6432 20.7981C3.52947 20.6619 3.44403 20.5045 3.3919 20.335C3.33301 20.1435 3.33301 19.932 3.33301 19.5089V12.4911C3.33301 12.0681 3.33301 11.8565 3.3919 11.665C3.44403 11.4955 3.52947 11.3381 3.6432 11.2019C3.77169 11.0482 3.94903 10.9329 4.3037 10.7024L15.5037 3.42239C15.9245 3.14885 16.1349 3.01208 16.3617 2.95886C16.5621 2.91182 16.7706 2.91182 16.971 2.95886C17.1977 3.01208 17.4082 3.14885 17.829 3.42239L29.029 10.7024C29.3837 10.9329 29.561 11.0482 29.6895 11.2019C29.8032 11.3381 29.8886 11.4955 29.9408 11.665C29.9997 11.8565 29.9997 12.0681 29.9997 12.4911V19.5089C29.9997 19.932 29.9997 20.1435 29.9408 20.335C29.8886 20.5045 29.8032 20.6619 29.6895 20.7981C29.561 20.9518 29.3837 21.0671 29.029 21.2976Z" stroke="#3534FF" stroke-width="1.5" stroke-linecap="round" stroke-linejoin="round"/>
</svg>
