<svg width="32" height="32" viewBox="0 0 32 32" fill="none" xmlns="http://www.w3.org/2000/svg">
<path d="M14.6667 6.00002H24.4001C25.8936 6.00002 26.6403 6.00002 27.2107 6.29067C27.7125 6.54633 28.1204 6.95428 28.3761 7.45605C28.6667 8.02648 28.6667 8.77321 28.6667 10.2667V12C28.6667 13.2425 28.6667 13.8638 28.4638 14.3538C28.1931 15.0073 27.674 15.5264 27.0206 15.797C26.5305 16 25.9093 16 24.6667 16M17.3334 26H7.60008C6.10661 26 5.35987 26 4.78944 25.7094C4.28767 25.4537 3.87973 25.0458 3.62406 24.544C3.33341 23.9736 3.33341 23.2268 3.33341 21.7334V20C3.33341 18.7575 3.33341 18.1363 3.5364 17.6462C3.80705 16.9928 4.32618 16.4737 4.97959 16.203C5.46965 16 6.0909 16 7.33341 16M13.7334 19.3334H18.2667C18.6401 19.3334 18.8268 19.3334 18.9694 19.2607C19.0949 19.1968 19.1968 19.0948 19.2608 18.9693C19.3334 18.8267 19.3334 18.6401 19.3334 18.2667V13.7334C19.3334 13.36 19.3334 13.1733 19.2608 13.0307C19.1968 12.9053 19.0949 12.8033 18.9694 12.7393C18.8268 12.6667 18.6401 12.6667 18.2667 12.6667H13.7334C13.36 12.6667 13.1734 12.6667 13.0308 12.7393C12.9053 12.8033 12.8033 12.9053 12.7394 13.0307C12.6667 13.1733 12.6667 13.36 12.6667 13.7334V18.2667C12.6667 18.6401 12.6667 18.8267 12.7394 18.9693C12.8033 19.0948 12.9053 19.1968 13.0308 19.2607C13.1734 19.3334 13.36 19.3334 13.7334 19.3334ZM23.7334 29.3334H28.2667C28.6401 29.3334 28.8268 29.3334 28.9694 29.2607C29.0949 29.1968 29.1968 29.0948 29.2608 28.9693C29.3334 28.8267 29.3334 28.6401 29.3334 28.2667V23.7334C29.3334 23.36 29.3334 23.1733 29.2608 23.0307C29.1968 22.9053 29.0949 22.8033 28.9694 22.7393C28.8268 22.6667 28.6401 22.6667 28.2667 22.6667H23.7334C23.36 22.6667 23.1734 22.6667 23.0308 22.7393C22.9053 22.8033 22.8033 22.9053 22.7394 23.0307C22.6667 23.1733 22.6667 23.36 22.6667 23.7334V28.2667C22.6667 28.6401 22.6667 28.8267 22.7394 28.9693C22.8033 29.0948 22.9053 29.1968 23.0308 29.2607C23.1734 29.3334 23.36 29.3334 23.7334 29.3334ZM3.73341 9.33335H8.26675C8.64012 9.33335 8.8268 9.33335 8.96941 9.26069C9.09485 9.19678 9.19684 9.09479 9.26075 8.96935C9.33341 8.82674 9.33341 8.64006 9.33341 8.26669V3.73335C9.33341 3.35999 9.33341 3.1733 9.26075 3.03069C9.19684 2.90525 9.09485 2.80326 8.96941 2.73935C8.8268 2.66669 8.64012 2.66669 8.26675 2.66669H3.73341C3.36005 2.66669 3.17336 2.66669 3.03075 2.73935C2.90531 2.80326 2.80333 2.90525 2.73941 3.03069C2.66675 3.1733 2.66675 3.35999 2.66675 3.73335V8.26669C2.66675 8.64006 2.66675 8.82674 2.73941 8.96935C2.80333 9.09479 2.90531 9.19678 3.03075 9.26069C3.17336 9.33335 3.36005 9.33335 3.73341 9.33335Z" stroke="#3534FF" stroke-width="1.5" stroke-linecap="round" stroke-linejoin="round"/>
</svg>
