<svg width="33" height="32" viewBox="0 0 33 32" fill="none" xmlns="http://www.w3.org/2000/svg">
<path d="M12.6663 2.66669V5.33335M20.6663 2.66669V5.33335M12.6663 26.6667V29.3334M20.6663 26.6667V29.3334M27.333 12H29.9997M27.333 18.6667H29.9997M3.33301 12H5.99967M3.33301 18.6667H5.99967M12.3997 26.6667H20.933C23.1732 26.6667 24.2933 26.6667 25.149 26.2307C25.9016 25.8472 26.5135 25.2353 26.897 24.4826C27.333 23.627 27.333 22.5069 27.333 20.2667V11.7334C27.333 9.49314 27.333 8.37304 26.897 7.51739C26.5135 6.76474 25.9016 6.15282 25.149 5.76933C24.2933 5.33335 23.1732 5.33335 20.933 5.33335H12.3997C10.1595 5.33335 9.03936 5.33335 8.18371 5.76933C7.43106 6.15282 6.81914 6.76474 6.43565 7.51739C5.99967 8.37304 5.99967 9.49314 5.99967 11.7334V20.2667C5.99967 22.5069 5.99967 23.627 6.43565 24.4826C6.81914 25.2353 7.43106 25.8472 8.18371 26.2307C9.03936 26.6667 10.1595 26.6667 12.3997 26.6667ZM14.7997 20H18.533C19.2797 20 19.6531 20 19.9383 19.8547C20.1892 19.7269 20.3932 19.5229 20.521 19.272C20.6663 18.9868 20.6663 18.6134 20.6663 17.8667V14.1334C20.6663 13.3866 20.6663 13.0132 20.521 12.728C20.3932 12.4772 20.1892 12.2732 19.9383 12.1453C19.6531 12 19.2797 12 18.533 12H14.7997C14.0529 12 13.6796 12 13.3944 12.1453C13.1435 12.2732 12.9395 12.4772 12.8117 12.728C12.6663 13.0132 12.6663 13.3866 12.6663 14.1334V17.8667C12.6663 18.6134 12.6663 18.9868 12.8117 19.272C12.9395 19.5229 13.1435 19.7269 13.3944 19.8547C13.6796 20 14.0529 20 14.7997 20Z" stroke="#3534FF" stroke-width="1.5" stroke-linecap="round" stroke-linejoin="round"/>
</svg>
