<svg width="166" height="40" viewBox="0 0 166 40" fill="none" xmlns="http://www.w3.org/2000/svg">
<path fill-rule="evenodd" clip-rule="evenodd" d="M20 34C12.268 34 6 27.732 6 20C6 12.268 12.268 6 20 6C27.732 6 34 12.268 34 20H40C40 8.9543 31.0457 0 20 0C8.9543 0 0 8.9543 0 20C0 31.0457 8.9543 40 20 40V34Z" fill="#3534FF"/>
<rect x="25" y="25.2" width="7" height="7" fill="#4948FF"/>
<rect x="18" y="17.5" width="7" height="7" fill="#3534FF"/>
<rect x="32" y="32.9" width="7" height="7" fill="#908FFF"/>
<path d="M57.372 11.4H61.32V31H57.372V11.4ZM77.6232 16.608V31H74.1232L73.7592 29.264C73.2552 29.8613 72.6672 30.328 71.9952 30.664C71.3232 31 70.5019 31.168 69.5312 31.168C67.8512 31.168 66.4792 30.6547 65.4152 29.628C64.3512 28.5827 63.8192 26.8467 63.8192 24.42V16.608H67.7672V23.944C67.7672 25.2507 67.9912 26.24 68.4392 26.912C68.9059 27.5653 69.6152 27.892 70.5672 27.892C71.5566 27.892 72.3219 27.528 72.8632 26.8C73.4046 26.0533 73.6752 25.0173 73.6752 23.692V16.608H77.6232ZM97.6721 16.44C99.2214 16.44 100.481 16.9533 101.452 17.98C102.423 19.0067 102.908 20.7147 102.908 23.104V31.028H98.9601V22.964C98.9601 20.78 98.1294 19.688 96.4681 19.688C95.6094 19.688 94.9188 19.996 94.3961 20.612C93.8734 21.2093 93.6121 22.0493 93.6121 23.132V31.028H89.6641V22.964C89.6641 20.78 88.8241 19.688 87.1441 19.688C86.2854 19.688 85.5948 20.0053 85.0721 20.64C84.5681 21.256 84.3161 22.096 84.3161 23.16V31.028H80.3681V16.608H83.8121L84.1761 18.4C84.6614 17.784 85.2401 17.308 85.9121 16.972C86.5841 16.636 87.4241 16.4587 88.4321 16.44C90.4854 16.44 91.9134 17.252 92.7161 18.876C93.2388 18.092 93.9201 17.4947 94.7601 17.084C95.6188 16.6547 96.5894 16.44 97.6721 16.44ZM107.376 10.616C108.029 10.616 108.57 10.8307 109 11.26C109.429 11.6707 109.644 12.1933 109.644 12.828C109.644 13.4627 109.429 13.9947 109 14.424C108.57 14.8533 108.029 15.068 107.376 15.068C106.722 15.068 106.172 14.8533 105.724 14.424C105.294 13.9947 105.08 13.4627 105.08 12.828C105.08 12.1933 105.294 11.6707 105.724 11.26C106.172 10.8307 106.722 10.616 107.376 10.616ZM105.388 16.608H109.336V31H105.388V16.608ZM120.347 16.44C122.027 16.44 123.408 16.9627 124.491 18.008C125.574 19.0533 126.115 20.78 126.115 23.188V31H122.167V23.412C122.167 20.9293 121.196 19.688 119.255 19.688C118.228 19.688 117.435 20.0333 116.875 20.724C116.315 21.4147 116.035 22.3853 116.035 23.636V31H112.087V16.608H115.531L115.895 18.4C116.399 17.784 117.006 17.308 117.715 16.972C118.424 16.6173 119.302 16.44 120.347 16.44ZM135.63 31.168C134.118 31.168 132.784 30.8693 131.626 30.272C130.488 29.656 129.601 28.788 128.966 27.668C128.35 26.548 128.042 25.26 128.042 23.804C128.042 22.348 128.35 21.06 128.966 19.94C129.601 18.82 130.488 17.9613 131.626 17.364C132.784 16.748 134.118 16.44 135.63 16.44C137.142 16.44 138.468 16.748 139.606 17.364C140.764 17.9613 141.65 18.82 142.266 19.94C142.901 21.06 143.218 22.348 143.218 23.804C143.218 25.2787 142.901 26.576 142.266 27.696C141.65 28.7973 140.764 29.656 139.606 30.272C138.468 30.8693 137.142 31.168 135.63 31.168ZM135.63 27.948C136.732 27.948 137.6 27.5653 138.234 26.8C138.888 26.0347 139.214 25.036 139.214 23.804C139.214 22.572 138.888 21.5733 138.234 20.808C137.6 20.0427 136.732 19.66 135.63 19.66C134.548 19.66 133.68 20.0427 133.026 20.808C132.392 21.5733 132.074 22.572 132.074 23.804C132.074 25.036 132.392 26.0347 133.026 26.8C133.68 27.5653 134.548 27.948 135.63 27.948ZM148.502 26.212C148.558 26.8467 148.866 27.36 149.426 27.752C149.986 28.144 150.705 28.34 151.582 28.34C152.422 28.34 153.085 28.2093 153.57 27.948C154.055 27.668 154.298 27.276 154.298 26.772C154.298 26.3987 154.186 26.1187 153.962 25.932C153.738 25.7453 153.421 25.6147 153.01 25.54C152.599 25.4467 151.927 25.344 150.994 25.232C149.725 25.064 148.67 24.8493 147.83 24.588C146.99 24.3267 146.318 23.916 145.814 23.356C145.31 22.796 145.058 22.0493 145.058 21.116C145.058 20.1827 145.31 19.3613 145.814 18.652C146.337 17.924 147.065 17.364 147.998 16.972C148.931 16.58 150.005 16.384 151.218 16.384C153.178 16.4027 154.755 16.8227 155.95 17.644C157.163 18.4653 157.817 19.604 157.91 21.06H154.158C154.102 20.5187 153.813 20.08 153.29 19.744C152.786 19.3893 152.133 19.212 151.33 19.212C150.583 19.212 149.977 19.352 149.51 19.632C149.062 19.912 148.838 20.2853 148.838 20.752C148.838 21.088 148.959 21.34 149.202 21.508C149.445 21.676 149.762 21.7973 150.154 21.872C150.546 21.9467 151.199 22.0307 152.114 22.124C154.055 22.348 155.539 22.768 156.566 23.384C157.611 23.9813 158.134 25.0173 158.134 26.492C158.134 27.4253 157.854 28.2467 157.294 28.956C156.753 29.6653 155.987 30.216 154.998 30.608C154.027 30.9813 152.898 31.168 151.61 31.168C149.613 31.168 147.989 30.7293 146.738 29.852C145.487 28.956 144.825 27.7427 144.75 26.212H148.502ZM159.959 28.844C159.959 28.1533 160.183 27.5933 160.631 27.164C161.079 26.716 161.649 26.492 162.339 26.492C163.011 26.492 163.571 26.716 164.019 27.164C164.486 27.612 164.719 28.172 164.719 28.844C164.719 29.516 164.486 30.076 164.019 30.524C163.571 30.9533 163.011 31.168 162.339 31.168C161.649 31.168 161.079 30.9533 160.631 30.524C160.183 30.076 159.959 29.516 159.959 28.844Z" fill="#262626"/>
</svg>
